# File created by Blade
# Date/Time:  Thu Sep 25 14:26:36 2014
# Frame Rate: 120.000 fps
#------------------------------------------------------
:FULLY-SPECIFIED
:DEGREES
722
root 15.445124 32.134430 -0.728655 -18.712343 83.498490 -9.482130
Spine -19.042139 11.209036 6.080731
Head 6.206935 -6.963610 3.824108
LeftShoulder -5.271650 10.917502 27.605782
LeftArm 39.571514 -14.672629 -22.471437
LeftForeArm 2.957860 -0.000000 19.685889
LeftHand -20.335191 -0.000000 2.311064
LeftHandThumb1 -26.253704 0.000000 33.147579
RightShoulder -12.588994 22.370834 -33.252974
RightArm 29.137153 -11.675596 38.009537
RightForeArm -29.825924 0.000000 16.264302
RightHand -4.239543 -0.000000 1.213980
RightHandThumb1 -24.326973 -0.000000 -32.862282
LeftUpLeg 11.946378 7.081470 17.189448
LeftLeg 9.235982 -0.000000 -0.000000
LeftFoot -15.795027 8.824350 -32.397843
LeftToeBase 4.537473 -0.000000 -0.000000
RightUpLeg 9.524749 -9.047495 -10.060974
RightLeg 11.901902 -0.000000 -0.000000
RightFoot -16.220775 -3.662359 0.812062
RightToeBase 0.574669 -0.000000 -0.000000
723
root 15.434760 32.134137 -0.730787 -19.264977 83.551871 -10.086669
Spine -19.114855 11.189110 6.144646
Head 6.081413 -6.997077 3.770080
LeftShoulder -5.237164 10.894731 27.619174
LeftArm 39.643878 -14.745671 -22.408191
LeftForeArm 3.080910 -0.000000 19.724132
LeftHand -20.028801 -0.000000 1.921151
LeftHandThumb1 -26.253704 0.000000 33.147579
RightShoulder -12.624941 22.565211 -33.324690
RightArm 29.027922 -11.640542 38.153391
RightForeArm -29.923949 -0.000000 16.544151
RightHand -4.201558 -0.000000 1.171820
RightHandThumb1 -24.326973 -0.000000 -32.862282
LeftUpLeg 11.997091 7.312231 17.266385
LeftLeg 8.916087 -0.000000 -0.000000
LeftFoot -15.752519 8.910017 -31.934823
LeftToeBase 5.005790 -0.000000 -0.000000
RightUpLeg 9.486853 -9.144877 -10.004748
RightLeg 11.897729 -0.000000 -0.000000
RightFoot -16.251616 -3.732064 0.742607
RightToeBase 0.440031 -0.000000 -0.000000
724
root 15.423897 32.131362 -0.733987 -19.986835 83.641724 -10.853438
Spine -19.176892 11.137091 6.238697
Head 5.948444 -7.034155 3.630926
LeftShoulder -5.190238 10.848354 27.605232
LeftArm 39.656896 -14.771151 -22.299294
LeftForeArm 3.012220 -0.000000 19.787804
LeftHand -20.018990 -0.000000 2.259926
LeftHandThumb1 -26.253704 0.000000 33.147579
RightShoulder -12.786201 23.104203 -33.541295
RightArm 28.862366 -12.030927 38.294196
RightForeArm -29.790774 -0.000000 16.722831
RightHand -4.329258 -0.000000 1.012787
RightHandThumb1 -24.326973 -0.000000 -32.862282
LeftUpLeg 12.051963 7.457611 17.334386
LeftLeg 8.596764 -0.000000 -0.000000
LeftFoot -15.821929 8.939065 -31.819814
LeftToeBase 5.576247 -0.000000 -0.000000
RightUpLeg 9.469470 -9.243001 -9.940876
RightLeg 11.892281 -0.000000 -0.000000
RightFoot -16.307498 -3.871344 0.701107
RightToeBase 0.338360 -0.000000 -0.000000
725
root 15.413999 32.126273 -0.736684 -20.945822 83.721348 -11.874111
Spine -19.275633 11.088241 6.333450
Head 5.821681 -7.057921 3.621870
LeftShoulder -5.180041 10.842926 27.633194
LeftArm 39.790152 -14.896104 -22.327212
LeftForeArm 3.042875 0.000000 19.818915
LeftHand -20.026420 -0.000000 2.449790
LeftHandThumb1 -26.253704 0.000000 33.147579
RightShoulder -12.779394 22.997895 -33.521175
RightArm 28.992604 -11.834957 38.294762
RightForeArm -29.682046 0.000000 16.957485
RightHand -4.847123 -0.000000 0.441442
RightHandThumb1 -24.326973 -0.000000 -32.862282
LeftUpLeg 12.084682 7.631535 17.434124
LeftLeg 8.299862 -0.000000 -0.000000
LeftFoot -15.820870 8.963422 -31.589166
LeftToeBase 5.778675 -0.000000 -0.000000
RightUpLeg 9.426107 -9.358580 -9.847423
RightLeg 11.911583 -0.000000 -0.000000
RightFoot -16.360549 -4.116151 0.545841
RightToeBase 0.265590 -0.000000 -0.000000
726
root 15.404891 32.118768 -0.738122 -22.238424 83.811504 -13.234344
Spine -19.390446 11.018210 6.448155
Head 5.646247 -7.101921 3.627557
LeftShoulder -5.199539 10.890813 27.686875
LeftArm 39.997084 -15.071917 -22.409789
LeftForeArm 3.091682 -0.000000 19.875195
LeftHand -20.321668 -0.000000 2.612512
LeftHandThumb1 -26.253704 0.000000 33.147579
RightShoulder -12.756595 22.778106 -33.456168
RightArm 29.120887 -11.385452 38.328852
RightForeArm -29.823082 -0.000000 17.239069
RightHand -4.508552 -0.000000 0.285301
RightHandThumb1 -24.326973 -0.000000 -32.862282
LeftUpLeg 12.096604 7.782654 17.579061
LeftLeg 8.047364 -0.000000 -0.000000
LeftFoot -15.913970 8.831068 -31.642303
LeftToeBase 6.196113 -0.000000 -0.000000
RightUpLeg 9.376248 -9.491704 -9.721468
RightLeg 11.950190 -0.000000 -0.000000
RightFoot -16.390750 -4.532240 0.296471
RightToeBase 0.250523 -0.000000 -0.000000
727
root 15.397604 32.109422 -0.739015 -23.721176 83.902928 -14.765997
Spine -19.481726 10.947641 6.578016
Head 5.455843 -7.136829 3.631117
LeftShoulder -5.195214 10.790677 27.755169
LeftArm 40.121773 -15.068759 -22.432589
LeftForeArm 3.174099 0.000000 19.895371
LeftHand -20.458713 -0.000000 2.719395
LeftHandThumb1 -26.253704 0.000000 33.147579
RightShoulder -12.735147 22.626546 -33.403955
RightArm 29.281905 -11.207569 38.218682
RightForeArm -29.739419 -0.000000 17.511154
RightHand -4.622907 -0.000000 0.117566
RightHandThumb1 -24.326973 -0.000000 -32.862282
LeftUpLeg 12.140324 7.963374 17.760295
LeftLeg 7.756740 -0.000000 -0.000000
LeftFoot -15.910226 8.642555 -31.463525
LeftToeBase 6.475396 -0.000000 -0.000000
RightUpLeg 9.345021 -9.678665 -9.602632
RightLeg 12.007215 -0.000000 -0.000000
RightFoot -16.420656 -5.153166 0.011052
RightToeBase 0.248964 -0.000000 -0.000000
728
root 15.393922 32.099742 -0.740915 -25.324081 84.021841 -16.404248
Spine -19.581797 10.877422 6.682912
Head 5.282393 -7.180535 3.661786
LeftShoulder -5.193827 10.733067 27.820808
LeftArm 40.341652 -15.252598 -22.589500
LeftForeArm 3.172222 -0.000000 19.906120
LeftHand -20.510923 -0.000000 2.868216
LeftHandThumb1 -26.253704 0.000000 33.147579
RightShoulder -12.734005 22.218326 -33.282683
RightArm 29.640627 -10.881601 38.016205
RightForeArm -29.456303 -0.000000 17.724770
RightHand -4.829968 -0.000000 -0.081274
RightHandThumb1 -24.326973 -0.000000 -32.862282
LeftUpLeg 12.175741 8.127397 17.945290
LeftLeg 7.516469 -0.000000 -0.000000
LeftFoot -15.898202 8.407898 -31.366148
LeftToeBase 6.718950 -0.000000 -0.000000
RightUpLeg 9.341349 -9.945340 -9.518493
RightLeg 12.058985 -0.000000 -0.000000
RightFoot -16.416371 -5.997286 -0.333018
RightToeBase 0.324518 -0.000000 -0.000000
729
root 15.392347 32.090605 -0.745474 -26.598560 84.165697 -17.693042
Spine -19.672997 10.822697 6.715711
Head 5.075662 -7.309234 3.673273
LeftShoulder -5.147213 10.674957 27.894364
LeftArm 40.531511 -15.412952 -22.700973
LeftForeArm 3.284206 -0.000000 19.929253
LeftHand -20.320445 -0.000000 2.568033
LeftHandThumb1 -26.253704 0.000000 33.147579
RightShoulder -12.848260 22.143033 -33.263102
RightArm 29.814311 -10.736622 37.952328
RightForeArm -29.234305 -0.000000 17.864413
RightHand -4.526219 -0.000000 -0.188341
RightHandThumb1 -24.326973 -0.000000 -32.862282
LeftUpLeg 12.221260 8.319739 18.091693
LeftLeg 7.282762 -0.000000 -0.000000
LeftFoot -15.806042 8.136817 -31.272717
LeftToeBase 6.777715 -0.000000 -0.000000
RightUpLeg 9.363787 -10.256890 -9.512456
RightLeg 12.132017 -0.000000 -0.000000
RightFoot -16.452084 -6.897368 -0.431338
RightToeBase 0.538698 -0.000000 -0.000000
730
root 15.394228 32.083123 -0.750121 -27.750386 84.331598 -18.838069
Spine -19.772676 10.737620 6.717001
Head 4.938245 -7.403678 3.695398
LeftShoulder -5.110004 10.654086 27.946514
LeftArm 40.729125 -15.567308 -22.760347
LeftForeArm 3.067770 -0.000000 19.956079
LeftHand -20.452344 -0.000000 2.880504
LeftHandThumb1 -26.253704 0.000000 33.147579
RightShoulder -13.013876 22.378092 -33.346346
RightArm 29.837512 -10.908569 37.976568
RightForeArm -29.106518 -0.000000 17.920774
RightHand -4.534842 0.000000 -0.523928
RightHandThumb1 -24.326973 -0.000000 -32.862282
LeftUpLeg 12.283044 8.478853 18.213393
LeftLeg 7.059253 -0.000000 -0.000000
LeftFoot -15.672967 7.873030 -31.218294
LeftToeBase 6.760429 -0.000000 -0.000000
RightUpLeg 9.413471 -10.636260 -9.563410
RightLeg 12.215930 -0.000000 -0.000000
RightFoot -16.447114 -7.740752 -0.526145
RightToeBase 0.601742 -0.000000 -0.000000
731
root 15.401572 32.076897 -0.755399 -28.715051 84.514362 -19.760586
Spine -19.849219 10.641532 6.665695
Head 4.773111 -7.514624 3.771753
LeftShoulder -5.082710 10.629325 28.011560
LeftArm 40.947308 -15.749641 -22.865254
LeftForeArm 3.110276 -0.000000 20.003798
LeftHand -20.320545 -0.000000 2.625105
LeftHandThumb1 -26.253704 0.000000 33.147579
RightShoulder -13.111465 22.370943 -33.329704
RightArm 29.960537 -10.819830 38.006824
RightForeArm -29.045309 0.000000 18.034537
RightHand -4.784160 0.000000 -0.777627
RightHandThumb1 -24.326973 -0.000000 -32.862282
LeftUpLeg 12.392959 8.624273 18.313840
LeftLeg 6.819742 -0.000000 -0.000000
LeftFoot -15.555318 7.595423 -31.265641
LeftToeBase 6.952208 -0.000000 -0.000000
RightUpLeg 9.513114 -11.128884 -9.692968
RightLeg 12.297359 -0.000000 -0.000000
RightFoot -16.425304 -8.353893 -0.607017
RightToeBase 0.466160 -0.000000 -0.000000
732
root 15.414056 32.072305 -0.759661 -29.571376 84.698337 -20.542970
Spine -19.905551 10.553155 6.575640
Head 4.639483 -7.619767 3.887328
LeftShoulder -5.053103 10.601961 28.096996
LeftArm 41.191381 -16.032713 -23.079352
LeftForeArm 3.110904 -0.000000 20.083523
LeftHand -20.378844 -0.000000 2.825005
LeftHandThumb1 -26.253704 0.000000 33.147579
RightShoulder -13.189250 22.220199 -33.220591
RightArm 30.170722 -10.626242 37.969653
RightForeArm -28.845164 -0.000000 18.146963
RightHand -4.805676 -0.000000 -0.981385
RightHandThumb1 -24.326973 -0.000000 -32.862282
LeftUpLeg 12.535038 8.782392 18.404322
LeftLeg 6.593372 -0.000000 -0.000000
LeftFoot -15.387764 7.349276 -31.260107
LeftToeBase 7.016515 -0.000000 -0.000000
RightUpLeg 9.656419 -11.697077 -9.872550
RightLeg 12.371030 -0.000000 -0.000000
RightFoot -16.382774 -8.697307 -0.675535
RightToeBase 0.465024 -0.000000 -0.000000
733
root 15.429076 32.069590 -0.763896 -30.328371 84.892311 -21.205256
Spine -19.969074 10.459770 6.449183
Head 4.521313 -7.769321 4.027796
LeftShoulder -4.985455 10.466370 28.202539
LeftArm 41.306119 -16.085118 -23.127993
LeftForeArm 2.972897 -0.000000 20.205700
LeftHand -20.407134 0.000000 2.881422
LeftHandThumb1 -26.253704 0.000000 33.147579
RightShoulder -13.255463 22.126138 -33.120964
RightArm 30.295898 -10.455191 37.975971
RightForeArm -28.842868 0.000000 18.233606
RightHand -4.715084 -0.000000 -1.140924
RightHandThumb1 -24.326973 -0.000000 -32.862282
LeftUpLeg 12.694042 8.911662 18.471721
LeftLeg 6.371179 -0.000000 -0.000000
LeftFoot -15.210924 7.139415 -31.226489
LeftToeBase 7.104978 -0.000000 -0.000000
RightUpLeg 9.832090 -12.292678 -10.082510
RightLeg 12.415940 -0.000000 -0.000000
RightFoot -16.326961 -8.827239 -0.673312
RightToeBase 0.709380 -0.000000 -0.000000
734
root 15.447844 32.068273 -0.767838 -30.759293 85.079563 -21.520246
Spine -20.027474 10.400787 6.278332
Head 4.410545 -7.925094 4.179917
LeftShoulder -4.916457 10.373924 28.320628
LeftArm 41.478208 -16.217414 -23.254731
LeftForeArm 2.945274 0.000000 20.339958
LeftHand -20.418518 -0.000000 2.854424
LeftHandThumb1 -26.253704 0.000000 33.147579
RightShoulder -13.349755 22.139991 -33.107292
RightArm 30.208464 -10.285129 38.146855
RightForeArm -28.887800 -0.000000 18.512574
RightHand -4.819562 -0.000000 -1.087764
RightHandThumb1 -24.326973 -0.000000 -32.862282
LeftUpLeg 12.880663 9.063295 18.517100
LeftLeg 6.161369 -0.000000 -0.000000
LeftFoot -15.018727 6.925705 -31.281742
LeftToeBase 7.132150 -0.000000 -0.000000
RightUpLeg 10.020759 -12.916973 -10.345518
RightLeg 12.484104 -0.000000 -0.000000
RightFoot -16.297162 -8.669804 -0.485814
RightToeBase 0.914551 -0.000000 -0.000000
